<?xml version="1.0" encoding="utf-8"?>
<!-- Generator: Adobe Illustrator 25.2.0, SVG Export Plug-In . SVG Version: 6.00 Build 0)  -->
<svg version="1.0" id="Layer_1" xmlns="http://www.w3.org/2000/svg" xmlns:xlink="http://www.w3.org/1999/xlink" x="0px" y="0px"
	 viewBox="0 0 651.97 841.89" style="enable-background:new 0 0 651.97 841.89;" xml:space="preserve">
<linearGradient id="SVGID_1_" gradientUnits="userSpaceOnUse" x1="264.2424" y1="343.9839" x2="425.4632" y2="509.5227">
	<stop  offset="0" style="stop-color:#F8DEAE"/>
	<stop  offset="0" style="stop-color:#F8DEAE"/>
	<stop  offset="6.706485e-03" style="stop-color:#F8DEAE"/>
	<stop  offset="0.2228" style="stop-color:#FDBE3A"/>
	<stop  offset="0.4528" style="stop-color:#FF952F"/>
	<stop  offset="0.7252" style="stop-color:#FD470E"/>
	<stop  offset="0.9502" style="stop-color:#F11F1A"/>
	<stop  offset="1" style="stop-color:#000000"/>
</linearGradient>
<path style="fill:url(#SVGID_1_);" d="M419.7,416.63c6.8,6.79,10.2,15.75,10.2,24.72c0,8.96-3.4,17.92-10.2,24.72
	c-6.82,6.82-15.83,10.22-24.83,10.19v0.12c0,8.96-3.4,17.92-10.19,24.71c-13.6,13.6-35.85,13.6-49.44,0l-5.24-5.24l14.03-14.03
	l5.24,5.24c2.83,2.83,6.62,4.39,10.69,4.39c4.06,0,7.86-1.56,10.69-4.39c2.83-2.83,4.38-6.63,4.38-10.7v-0.04
	c0-3.84-1.52-7.51-4.24-10.23l-27.57-27.57L330,425.3l13.3-13.31l13.23,13.23l4.01,4.01l14.03,14.03l4.01,4.01l4.91,4.91
	c2.7,2.7,6.37,4.23,10.19,4.24h1.3c4.07,0,7.86-1.56,10.69-4.38c5.89-5.9,5.89-15.49,0-21.38l-5.24-5.24l14.03-14.03L419.7,416.63z
	 M237.52,403.37l14.03-14.03l-5.25-5.25c-5.9-5.9-5.9-15.49,0-21.38c2.82-2.83,6.62-4.38,10.69-4.38h0.1
	c3.82,0.01,7.48,1.54,10.18,4.24l41.4,41.4l13.31-13.3l-13.83-13.83l-4.01-4.01l-14.03-14.03l-8.93-8.93
	c-2.72-2.72-4.24-6.39-4.24-10.23v-1.22c-0.02-4.08,1.54-7.89,4.38-10.73c2.83-2.83,6.62-4.39,10.69-4.39
	c4.06,0,7.86,1.56,10.69,4.39l5.25,5.25l14.03-14.03l-5.25-5.25c-13.6-13.6-35.85-13.6-49.44,0c-6.81,6.8-10.2,15.78-10.2,24.74
	v0.08c-8.99-0.02-18,3.37-24.82,10.2c-6.8,6.8-10.2,15.76-10.2,24.72c0,8.96,3.4,17.92,10.2,24.72L237.52,403.37z M378.38,403.37
	l14.03-14.03l-13.23-13.23l-4.01-4.01l-13.3-13.3l-4.01-4.01l-13.83-13.83L330,354.99l13.83,13.83l21.32,21.32L378.38,403.37z
	 M304.74,442.53l-13.3-13.3l-4.01-4.01l-13.83-13.83l-14.03,14.03l13.83,13.83l34.55,34.55l14.03-14.03l-13.23-13.23L304.74,442.53z
	 M325.99,421.29l13.3-13.31l4.01-4.01l13.83-13.83l-13.3-13.3l-17.84,17.84l-13.31,13.3l-4.01,4.01l-13.22,13.23l13.3,13.3
	l13.23-13.22L325.99,421.29z M344.03,473.8l13.22-13.23l-14.03-14.03L330,459.77l-4.01,4.01l-14.03,14.03l-4.01,4.01l-5.25,5.24
	c-5.9,5.9-15.49,5.9-21.38,0c-2.83-2.82-4.38-6.62-4.38-10.69v-0.1c0.01-3.82,1.54-7.48,4.24-10.18l5.52-5.52l-13.3-13.3l-4.92,4.91
	c-2.72,2.72-6.39,4.24-10.23,4.24h-1.22c-4.08,0.02-7.89-1.54-10.73-4.38c-2.83-2.83-4.39-6.62-4.39-10.69
	c0-4.06,1.56-7.86,4.39-10.69l5.25-5.24l4.01-4.01l14.03-14.03l4.01-4.01l13.22-13.23l-14.03-14.03l-13.22,13.23l-4.01,4.01
	l-14.03,14.03l-4.01,4.01l-5.25,5.24c-13.6,13.6-13.6,35.85,0,49.44c6.8,6.81,15.78,10.2,24.74,10.2h0.08
	c-0.02,8.99,3.37,18,10.2,24.82c6.8,6.8,15.76,10.2,24.72,10.2c8.96,0,17.92-3.4,24.72-10.2l5.25-5.24l4.01-4.01l14.03-14.03
	L344.03,473.8z M308.15,368.82l35.88-35.88l5.24-5.25c5.89-5.89,15.48-5.89,21.38,0c2.82,2.83,4.38,6.62,4.38,10.69v1.3
	c-0.01,3.82-1.54,7.49-4.24,10.19l-4.91,4.92l13.3,13.3l5.52-5.52c2.72-2.72,6.39-4.24,10.23-4.24h0.04c4.07,0,7.87,1.55,10.7,4.38
	c2.83,2.83,4.39,6.63,4.39,10.69c0,4.07-1.56,7.86-4.39,10.69l-5.24,5.25l-4.01,4.01l-14.03,14.03l-4.01,4.01l-13.83,13.83
	l14.03,14.03l13.83-13.83l4.01-4.01l14.03-14.03l4.01-4.01l5.24-5.25c13.6-13.59,13.6-35.84,0-49.44
	c-6.79-6.79-15.75-10.19-24.71-10.19h-0.12c0.03-9-3.37-18.01-10.19-24.83c-6.8-6.8-15.76-10.2-24.72-10.2
	c-8.97,0-17.93,3.4-24.72,10.2l-5.24,5.25l-4.01,4.01l-31.87,31.87L308.15,368.82z"/>
</svg>
